<svg xmlns="http://www.w3.org/2000/svg" viewBox="0 0 80 80" width="80" height="80" role="img" aria-label="KraftAtlas app icon">
  <title>KraftAtlas — Nordic Power Map</title>
  <rect x="1" y="1" width="78" height="78" rx="18" fill="#0d1117" stroke="#21262d" stroke-width="1.5"/>
  <!-- Circuit-K centred in 80×80: scale the 64-unit K to ~62 units, offset (9,9) -->
  <g transform="translate(9,9) scale(0.97)">
    <g fill="none" stroke="#58a6ff" stroke-width="2.7" stroke-linecap="square" stroke-linejoin="miter">
      <path d="M22 13 V51"/>
      <path d="M22 32 L33 22.5 L44 13"/>
      <path d="M22 32 L33 41.5 L44 51"/>
    </g>
    <g fill="#58a6ff">
      <rect x="19.2" y="10.2" width="5.6" height="5.6" rx="1"/>
      <rect x="18.8" y="28.8" width="6.4" height="6.4" rx="1"/>
      <rect x="19.2" y="48.2" width="5.6" height="5.6" rx="1"/>
      <rect x="41.2" y="10.2" width="5.6" height="5.6" rx="1"/>
      <rect x="41.2" y="48.2" width="5.6" height="5.6" rx="1"/>
    </g>
    <g fill="none" stroke="#58a6ff" stroke-width="1.5">
      <rect x="30.6" y="20.1" width="4.8" height="4.8" rx="0.8"/>
      <rect x="30.6" y="39.1" width="4.8" height="4.8" rx="0.8"/>
    </g>
  </g>
</svg>
