<svg xmlns="http://www.w3.org/2000/svg" viewBox="0 0 80 80" width="80" height="80" role="img" aria-label="Kraftatlas app icon">
  <title>Kraftatlas app icon — power network over a world map</title>
  <defs><clipPath id="kai"><circle cx="32" cy="32" r="23.2"/></clipPath></defs>
  <rect x="1" y="1" width="78" height="78" rx="18" fill="#0d1117" stroke="#21262d" stroke-width="1.5"/>
  <g transform="translate(40,40) scale(0.9) translate(-32,-32)">
    <g clip-path="url(#kai)" fill="#8b949e" opacity="0.5">
    <circle cx="26.4" cy="12.6" r="0.62"/>
    <circle cx="20.7" cy="14.9" r="0.62"/>
    <circle cx="39.0" cy="14.9" r="0.62"/>
    <circle cx="41.3" cy="14.9" r="0.62"/>
    <circle cx="43.6" cy="14.9" r="0.62"/>
    <circle cx="17.2" cy="17.2" r="0.62"/>
    <circle cx="19.5" cy="17.2" r="0.62"/>
    <circle cx="21.8" cy="17.2" r="0.62"/>
    <circle cx="24.1" cy="17.2" r="0.62"/>
    <circle cx="33.3" cy="17.2" r="0.62"/>
    <circle cx="35.6" cy="17.2" r="0.62"/>
    <circle cx="37.9" cy="17.2" r="0.62"/>
    <circle cx="40.2" cy="17.2" r="0.62"/>
    <circle cx="42.5" cy="17.2" r="0.62"/>
    <circle cx="44.8" cy="17.2" r="0.62"/>
    <circle cx="47.1" cy="17.2" r="0.62"/>
    <circle cx="16.1" cy="19.5" r="0.62"/>
    <circle cx="18.4" cy="19.5" r="0.62"/>
    <circle cx="20.7" cy="19.5" r="0.62"/>
    <circle cx="23.0" cy="19.5" r="0.62"/>
    <circle cx="32.2" cy="19.5" r="0.62"/>
    <circle cx="34.5" cy="19.5" r="0.62"/>
    <circle cx="36.8" cy="19.5" r="0.62"/>
    <circle cx="39.0" cy="19.5" r="0.62"/>
    <circle cx="41.3" cy="19.5" r="0.62"/>
    <circle cx="43.6" cy="19.5" r="0.62"/>
    <circle cx="45.9" cy="19.5" r="0.62"/>
    <circle cx="48.2" cy="19.5" r="0.62"/>
    <circle cx="14.9" cy="21.8" r="0.62"/>
    <circle cx="17.2" cy="21.8" r="0.62"/>
    <circle cx="19.5" cy="21.8" r="0.62"/>
    <circle cx="21.8" cy="21.8" r="0.62"/>
    <circle cx="24.1" cy="21.8" r="0.62"/>
    <circle cx="35.6" cy="21.8" r="0.62"/>
    <circle cx="37.9" cy="21.8" r="0.62"/>
    <circle cx="40.2" cy="21.8" r="0.62"/>
    <circle cx="42.5" cy="21.8" r="0.62"/>
    <circle cx="44.8" cy="21.8" r="0.62"/>
    <circle cx="47.1" cy="21.8" r="0.62"/>
    <circle cx="49.4" cy="21.8" r="0.62"/>
    <circle cx="13.8" cy="24.1" r="0.62"/>
    <circle cx="16.1" cy="24.1" r="0.62"/>
    <circle cx="18.4" cy="24.1" r="0.62"/>
    <circle cx="20.7" cy="24.1" r="0.62"/>
    <circle cx="23.0" cy="24.1" r="0.62"/>
    <circle cx="36.8" cy="24.1" r="0.62"/>
    <circle cx="39.0" cy="24.1" r="0.62"/>
    <circle cx="41.3" cy="24.1" r="0.62"/>
    <circle cx="43.6" cy="24.1" r="0.62"/>
    <circle cx="45.9" cy="24.1" r="0.62"/>
    <circle cx="48.2" cy="24.1" r="0.62"/>
    <circle cx="50.5" cy="24.1" r="0.62"/>
    <circle cx="19.5" cy="26.4" r="0.62"/>
    <circle cx="33.3" cy="26.4" r="0.62"/>
    <circle cx="35.6" cy="26.4" r="0.62"/>
    <circle cx="40.2" cy="26.4" r="0.62"/>
    <circle cx="42.5" cy="26.4" r="0.62"/>
    <circle cx="44.8" cy="26.4" r="0.62"/>
    <circle cx="47.1" cy="26.4" r="0.62"/>
    <circle cx="32.2" cy="28.7" r="0.62"/>
    <circle cx="34.5" cy="28.7" r="0.62"/>
    <circle cx="36.8" cy="28.7" r="0.62"/>
    <circle cx="39.0" cy="28.7" r="0.62"/>
    <circle cx="41.3" cy="28.7" r="0.62"/>
    <circle cx="24.1" cy="31.0" r="0.62"/>
    <circle cx="31.0" cy="31.0" r="0.62"/>
    <circle cx="33.3" cy="31.0" r="0.62"/>
    <circle cx="35.6" cy="31.0" r="0.62"/>
    <circle cx="37.9" cy="31.0" r="0.62"/>
    <circle cx="23.0" cy="33.3" r="0.62"/>
    <circle cx="25.3" cy="33.3" r="0.62"/>
    <circle cx="32.2" cy="33.3" r="0.62"/>
    <circle cx="34.5" cy="33.3" r="0.62"/>
    <circle cx="36.8" cy="33.3" r="0.62"/>
    <circle cx="39.0" cy="33.3" r="0.62"/>
    <circle cx="21.8" cy="35.6" r="0.62"/>
    <circle cx="24.1" cy="35.6" r="0.62"/>
    <circle cx="26.4" cy="35.6" r="0.62"/>
    <circle cx="31.0" cy="35.6" r="0.62"/>
    <circle cx="33.3" cy="35.6" r="0.62"/>
    <circle cx="35.6" cy="35.6" r="0.62"/>
    <circle cx="37.9" cy="35.6" r="0.62"/>
    <circle cx="20.7" cy="37.9" r="0.62"/>
    <circle cx="23.0" cy="37.9" r="0.62"/>
    <circle cx="25.3" cy="37.9" r="0.62"/>
    <circle cx="32.2" cy="37.9" r="0.62"/>
    <circle cx="34.5" cy="37.9" r="0.62"/>
    <circle cx="36.8" cy="37.9" r="0.62"/>
    <circle cx="48.2" cy="37.9" r="0.62"/>
    <circle cx="50.5" cy="37.9" r="0.62"/>
    <circle cx="21.8" cy="40.2" r="0.62"/>
    <circle cx="24.1" cy="40.2" r="0.62"/>
    <circle cx="26.4" cy="40.2" r="0.62"/>
    <circle cx="33.3" cy="40.2" r="0.62"/>
    <circle cx="35.6" cy="40.2" r="0.62"/>
    <circle cx="49.4" cy="40.2" r="0.62"/>
    <circle cx="51.7" cy="40.2" r="0.62"/>
    <circle cx="20.7" cy="42.5" r="0.62"/>
    <circle cx="23.0" cy="42.5" r="0.62"/>
    <circle cx="25.3" cy="42.5" r="0.62"/>
    <circle cx="24.1" cy="44.8" r="0.62"/>
    </g>
    <circle cx="32" cy="32" r="24" fill="none" stroke="#8b949e" stroke-width="1.3" opacity="0.75"/>
    <g fill="none" stroke="#58a6ff" stroke-width="1.4" stroke-linecap="round" opacity="0.95">
    <path d="M28,14 Q26.1,18.3 26.5,23"/>
    <path d="M26.5,23 Q24.6,27.3 25,32"/>
    <path d="M25,32 Q23.6,36.4 24.5,41"/>
    <path d="M24.5,41 Q24.6,45.8 27,50"/>
    <path d="M25,32 Q28.7,27.3 34,24.5"/>
    <path d="M34,24.5 Q37.7,19.4 43,16"/>
    <path d="M25,32 Q28.4,36.9 33.5,40"/>
    <path d="M33.5,40 Q38.0,45.0 44,48"/>
    </g>
    <g fill="#58a6ff" stroke="#0d1117" stroke-width="0.7">
    <circle cx="28" cy="14" r="1.7"/>
    <circle cx="26.5" cy="23" r="1.7"/>
    <circle cx="25" cy="32" r="1.7"/>
    <circle cx="24.5" cy="41" r="1.7"/>
    <circle cx="27" cy="50" r="1.7"/>
    <circle cx="34" cy="24.5" r="1.7"/>
    <circle cx="43" cy="16" r="1.7"/>
    <circle cx="33.5" cy="40" r="1.7"/>
    <circle cx="44" cy="48" r="1.7"/>
    </g>
  </g>
</svg>
