<svg xmlns="http://www.w3.org/2000/svg" viewBox="0 0 360 96" width="360" height="96" role="img" aria-label="KraftAtlas">
  <title>KraftAtlas — Nordic Power Map</title>
  <!-- Bordered icon box -->
  <rect x="17" y="17" width="62" height="62" rx="14" fill="#0d1117" stroke="#58a6ff" stroke-width="2"/>
  <!-- Circuit-K icon mark (64×64 at origin, centred in 96px height via translate 16,16) -->
  <g transform="translate(16,16)">
    <g fill="none" stroke="#58a6ff" stroke-width="2.6" stroke-linecap="square" stroke-linejoin="miter">
      <path d="M22 13 V51"/>
      <path d="M22 32 L33 22.5 L44 13"/>
      <path d="M22 32 L33 41.5 L44 51"/>
    </g>
    <g fill="#58a6ff">
      <rect x="19.2" y="10.2" width="5.6" height="5.6" rx="1"/>
      <rect x="18.8" y="28.8" width="6.4" height="6.4" rx="1"/>
      <rect x="19.2" y="48.2" width="5.6" height="5.6" rx="1"/>
      <rect x="41.2" y="10.2" width="5.6" height="5.6" rx="1"/>
      <rect x="41.2" y="48.2" width="5.6" height="5.6" rx="1"/>
    </g>
    <g fill="none" stroke="#58a6ff" stroke-width="1.4">
      <rect x="30.6" y="20.1" width="4.8" height="4.8" rx="0.8"/>
      <rect x="30.6" y="39.1" width="4.8" height="4.8" rx="0.8"/>
    </g>
  </g>
  <!-- Wordmark -->
  <text x="94" y="52" font-family="'JetBrains Mono', 'SF Mono', Menlo, monospace" font-size="32" font-weight="700" letter-spacing="0"><tspan fill="#e6edf3">Kraft</tspan><tspan fill="#58a6ff">Atlas</tspan></text>
  <text x="94" y="71" font-family="'JetBrains Mono', 'SF Mono', Menlo, monospace" font-size="11" font-weight="500" textLength="192" lengthAdjust="spacing" fill="#8b949e">NORDIC POWER MAP</text>
</svg>
