<svg xmlns="http://www.w3.org/2000/svg" viewBox="0 0 64 64">
  <!-- Concept 3: Constellation K — bright K graph over a faint node-cloud.
       Bridges this monogram with the existing globe-network icon.svg. -->
  <rect width="64" height="64" rx="14" fill="#0d1117"/>
  <g fill="#8b949e" opacity="0.28">
    <circle cx="11" cy="16" r="0.7"/><circle cx="17" cy="11" r="0.7"/><circle cx="30" cy="9" r="0.7"/>
    <circle cx="40" cy="12" r="0.7"/><circle cx="51" cy="10" r="0.7"/><circle cx="55" cy="20" r="0.7"/>
    <circle cx="53" cy="33" r="0.7"/><circle cx="56" cy="44" r="0.7"/><circle cx="50" cy="54" r="0.7"/>
    <circle cx="38" cy="57" r="0.7"/><circle cx="27" cy="55" r="0.7"/><circle cx="15" cy="56" r="0.7"/>
    <circle cx="9" cy="46" r="0.7"/><circle cx="12" cy="34" r="0.7"/><circle cx="9" cy="27" r="0.7"/>
    <circle cx="36" cy="33" r="0.7"/><circle cx="48" cy="40" r="0.7"/><circle cx="29" cy="44" r="0.7"/>
  </g>
  <g fill="none" stroke="#58a6ff" stroke-width="2.4" stroke-linecap="round" stroke-linejoin="round" opacity="0.92">
    <path d="M22 13 V51"/>
    <path d="M22 32 L33 22.5 L44 13"/>
    <path d="M22 32 L33 41.5 L44 51"/>
  </g>
  <g fill="#58a6ff" stroke="#0d1117" stroke-width="1.1">
    <circle cx="22" cy="13" r="3.2"/>
    <circle cx="22" cy="32" r="3.8"/>
    <circle cx="22" cy="51" r="3.2"/>
    <circle cx="33" cy="22.5" r="2.4"/>
    <circle cx="33" cy="41.5" r="2.4"/>
    <circle cx="44" cy="13" r="3.2"/>
    <circle cx="44" cy="51" r="3.2"/>
  </g>
</svg>
